Coordinates
version=1
nRows=12
nColumns=24
inDegrees=yes

Units are S.I. units (second, meters, Newtons, ...)
Angles are in degrees.

endheader
time	pelvis_tilt	pelvis_list	pelvis_rotation	pelvis_tx	pelvis_ty	pelvis_tz	hip_flexion_r	hip_adduction_r	hip_rotation_r	knee_angle_r	ankle_angle_r	subtalar_angle_r	mtp_angle_r	hip_flexion_l	hip_adduction_l	hip_rotation_l	knee_angle_l	ankle_angle_l	subtalar_angle_l	mtp_angle_l	lumbar_extension	lumbar_bending	lumbar_rotation
      4.12000000	    -17.74205912	     -5.06459041	      7.61843227	     -1.75373478	     -0.04220446	     -0.27827955	     45.77315034	      0.38195779	    -18.66861370	    -14.97236514	     -1.76703774	     -5.27258017	     18.70558915	     -1.16319344	     -4.73508620	     -3.19457794	    -15.73519255	      6.57394848	     14.61678776	     12.67653607	     19.24014296	     -1.56852629	    -24.42889198
      4.12500000	    -17.76563717	     -5.31278249	      7.81764177	     -1.74612891	     -0.04325060	     -0.27828662	     45.85945234	      0.45561998	    -18.69949204	    -15.70258022	     -2.46950151	     -6.22089247	     18.64371496	     -1.21349765	     -5.16183785	     -3.04411566	    -16.37439915	      6.08329277	     15.01013584	     12.72037554	     19.36695136	     -1.31990778	    -24.64421075
      4.13000000	    -17.80069457	     -5.57859087	      7.83962289	     -1.73834568	     -0.04432325	     -0.27802556	     45.96245790	      0.70481861	    -18.50701503	    -16.42338800	     -3.33997445	     -7.46366648	     18.52282773	     -1.27450942	     -5.64296019	     -3.27201857	    -17.01475791	      5.50413574	     15.60192051	     12.99464709	     19.53066146	     -0.99945083	    -24.64848947
      4.13500000	    -17.83995295	     -5.86611541	      7.99458141	     -1.73069655	     -0.04528570	     -0.27793435	     46.08009988	      0.85988946	    -18.45828469	    -17.18378450	     -4.23126597	     -8.65886152	     18.32736482	     -1.24055737	     -6.13686327	     -3.23192419	    -17.73086432	      4.82986548	     16.07632232	     13.30986956	     19.67950334	     -0.70245456	    -24.80234458
      4.14000000	    -17.89821941	     -6.15334802	      7.93276787	     -1.72296346	     -0.04632241	     -0.27756878	     46.27328686	      1.18767232	    -18.16395241	    -18.02614034	     -5.21130702	    -10.04464171	     17.92486477	     -1.22127279	     -6.65545984	     -3.55429287	    -18.43490198	      4.10060076	     16.65840781	     14.00416229	     19.85307453	     -0.33005346	    -24.76246729
      4.14500000	    -17.91268390	     -6.43659138	      7.98145158	     -1.71538645	     -0.04718397	     -0.27728054	     46.43556106	      1.44542568	    -17.87958064	    -18.93691051	     -6.08011987	    -11.31099902	     16.86085223	     -1.16501881	     -7.18180742	     -3.73774039	    -19.15684590	      3.11670121	     17.06808909	     15.51484041	     19.95245419	     -0.00000095	    -24.82962676
      4.15000000	    -17.99024398	     -6.73392024	      7.96436628	     -1.70774560	     -0.04809539	     -0.27692812	     46.69276636	      1.75582539	    -17.52041148	    -19.89829585	     -6.86380457	    -12.64583412	     16.06045663	     -1.01288517	     -7.71905650	     -3.91309100	    -19.98694316	      2.18041129	     17.65831202	     16.26304159	     20.12849756	      0.35769860	    -24.80760105
      4.15500000	    -18.02693225	     -7.04807718	      7.95816688	     -1.70019603	     -0.04889335	     -0.27658234	     46.93118978	      2.09122813	    -17.08659495	    -20.93755757	     -7.47984564	    -13.81979171	     14.56212131	     -0.83616730	     -8.28555681	     -4.11936393	    -20.86053067	      1.05467572	     18.05405881	     17.63095197	     20.24793146	      0.73444608	    -24.86680973
      4.16000000	    -18.09164253	     -7.35568349	      7.89873656	     -1.69259673	     -0.04968632	     -0.27617791	     47.21762889	      2.45591298	    -16.66229911	    -22.02290952	     -7.94437889	    -14.96341651	     13.23939009	     -0.60865162	     -8.84794066	     -4.32413338	    -21.78876959	     -0.14275456	     18.56117526	     18.73771390	     20.40273942	      1.12027434	    -24.81326186
      4.16500000	    -18.15045822	     -7.72001881	      7.84352788	     -1.68511397	     -0.05043783	     -0.27583113	     47.50171384	      2.86822086	    -16.23097177	    -23.10824601	     -8.27742754	    -15.99901566	     11.94799670	     -0.27821897	     -9.47056360	     -4.54387025	    -22.86979928	     -1.39523738	     18.91085117	     19.83588335	     20.53621682	      1.57024340	    -24.82700153
      4.17000000	    -18.13382675	     -7.98006185	      7.81056434	     -1.67762244	     -0.05103966	     -0.27538942	     47.71659885	      3.20730496	    -15.79403508	    -24.31036706	     -8.21938828	    -16.72878315	      9.81395954	     -0.03645012	    -10.00413689	     -4.69291034	    -23.85130604	     -2.97255751	     19.23011241	     21.71255261	     20.57422260	      1.89982312	    -24.83369433
      4.17500000	    -18.10920238	     -8.27265855	      7.78965025	     -1.67023775	     -0.05159715	     -0.27501561	     47.90240686	      3.56273752	    -15.41735363	    -25.46253513	     -8.04883043	    -17.37508042	      8.04319433	      0.29569130	    -10.56067194	     -4.77815077	    -24.97725765	     -4.58082187	     19.42945570	     23.25160629	     20.59108765	      2.26689774	    -24.88052116
